<svg xmlns="http://www.w3.org/2000/svg" xmlns:xlink="http://www.w3.org/1999/xlink" width="1920" zoomAndPan="magnify" viewBox="0 0 1440 809.999993" height="1080" preserveAspectRatio="xMidYMid meet" version="1.0"><defs><g/><clipPath id="ae2fc5435c"><path d="M 188.148438 166 L 542 166 L 542 614 L 188.148438 614 Z M 188.148438 166 " clip-rule="nonzero"/></clipPath></defs><rect x="-144" width="1728" fill="#ffffff" y="-80.999999" height="971.999992" fill-opacity="1"/><rect x="-144" width="1728" fill="#ffffff" y="-80.999999" height="971.999992" fill-opacity="1"/><rect x="-144" width="1728" fill="#000000" y="-80.999999" height="971.999992" fill-opacity="1"/><path fill="#f0abc1" d="M 540.625 177.46875 L 540.625 400.324219 C 540.625 408.238281 535.863281 417.386719 529.957031 420.722656 L 200.109375 611.359375 C 194.207031 614.792969 189.445312 611.171875 189.445312 603.257812 L 189.445312 380.402344 C 189.445312 372.492188 194.207031 363.339844 200.109375 360.003906 L 529.957031 169.367188 C 535.765625 165.9375 540.625 169.558594 540.625 177.46875 Z M 540.625 177.46875 " fill-opacity="1" fill-rule="nonzero"/><g clip-path="url(#ae2fc5435c)"><path fill="#143c3c" d="M 537.386719 167.84375 C 535.101562 166.507812 532.242188 166.699219 529.292969 168.414062 L 199.441406 359.050781 C 193.347656 362.578125 188.300781 372.207031 188.300781 380.402344 L 188.300781 603.257812 C 188.300781 607.832031 189.824219 611.265625 192.492188 612.886719 C 193.445312 613.457031 194.585938 613.742188 195.730469 613.742188 C 197.253906 613.742188 198.871094 613.265625 200.492188 612.3125 L 530.339844 421.675781 C 536.527344 418.054688 541.574219 408.523438 541.574219 400.324219 L 541.574219 177.46875 C 541.671875 172.894531 540.148438 169.367188 537.386719 167.84375 Z M 529.386719 419.769531 L 199.539062 610.40625 C 197.347656 611.648438 195.253906 611.933594 193.632812 610.980469 C 191.636719 609.835938 190.492188 606.976562 190.492188 603.257812 L 190.492188 388.503906 L 539.480469 186.8125 L 539.480469 400.324219 C 539.480469 407.761719 534.910156 416.527344 529.386719 419.769531 Z M 529.386719 419.769531 " fill-opacity="1" fill-rule="nonzero"/></g><path fill="#f0abc1" d="M 198.394531 372.96875 C 198.394531 374.304688 198.777344 375.257812 199.539062 375.734375 C 200.300781 376.113281 201.347656 376.019531 202.488281 375.351562 C 205.25 373.730469 207.632812 369.632812 207.632812 366.488281 C 207.632812 365.152344 207.25 364.199219 206.488281 363.722656 C 206.203125 363.53125 205.917969 363.53125 205.539062 363.53125 C 204.964844 363.53125 204.203125 363.722656 203.539062 364.199219 C 200.777344 365.628906 198.394531 369.726562 198.394531 372.96875 Z M 198.394531 372.96875 " fill-opacity="1" fill-rule="nonzero"/><path fill="#94ddde" d="M 213.917969 363.914062 C 213.917969 365.246094 214.296875 366.199219 215.058594 366.675781 C 215.820312 367.058594 216.867188 366.964844 218.011719 366.296875 C 220.773438 364.675781 223.152344 360.578125 223.152344 357.429688 C 223.152344 356.097656 222.773438 355.144531 222.011719 354.667969 C 221.726562 354.476562 221.4375 354.476562 221.058594 354.476562 C 220.488281 354.476562 219.726562 354.667969 219.058594 355.144531 C 216.296875 356.667969 213.917969 360.769531 213.917969 363.914062 Z M 213.917969 363.914062 " fill-opacity="1" fill-rule="nonzero"/><path fill="#fefefe" d="M 229.820312 354.761719 C 229.820312 356.097656 230.199219 357.050781 230.960938 357.527344 C 231.722656 357.90625 232.769531 357.8125 233.914062 357.144531 C 236.675781 355.523438 239.054688 351.425781 239.054688 348.28125 C 239.054688 346.945312 238.675781 345.992188 237.914062 345.515625 C 237.628906 345.324219 237.339844 345.324219 236.960938 345.324219 C 236.390625 345.324219 235.628906 345.515625 234.960938 345.992188 C 232.199219 347.421875 229.820312 351.523438 229.820312 354.761719 Z M 229.820312 354.761719 " fill-opacity="1" fill-rule="nonzero"/><path fill="#94ddde" d="M 566.238281 191.957031 L 566.238281 414.8125 C 566.238281 422.726562 561.476562 431.875 555.574219 435.210938 L 225.722656 625.847656 C 219.820312 629.28125 215.058594 625.660156 215.058594 617.746094 L 215.058594 394.890625 C 215.058594 386.980469 219.820312 377.828125 225.722656 374.492188 L 555.574219 183.855469 C 561.476562 180.425781 566.238281 184.046875 566.238281 191.957031 Z M 566.238281 191.957031 " fill-opacity="1" fill-rule="nonzero"/><path fill="#143c3c" d="M 563.09375 182.332031 C 560.808594 180.996094 557.953125 181.1875 555 182.902344 L 225.152344 373.539062 C 218.964844 377.164062 213.917969 386.695312 213.917969 394.890625 L 213.917969 617.746094 C 213.917969 622.324219 215.441406 625.753906 218.105469 627.375 C 219.058594 627.945312 220.203125 628.230469 221.34375 628.230469 C 222.867188 628.230469 224.488281 627.753906 226.105469 626.800781 L 555.953125 436.164062 C 562.144531 432.542969 567.191406 423.011719 567.191406 414.8125 L 567.191406 191.957031 C 567.378906 187.382812 565.761719 183.953125 563.09375 182.332031 Z M 565.191406 201.300781 L 565.191406 203.777344 L 543.382812 225.605469 L 517.390625 251.628906 L 465.398438 303.671875 L 439.402344 329.695312 L 387.316406 381.832031 L 361.320312 407.855469 L 309.234375 459.996094 L 283.238281 486.015625 L 231.246094 538.058594 L 216.105469 553.214844 L 216.105469 547.210938 L 237.914062 525.382812 L 270.382812 492.878906 L 315.898438 447.316406 L 348.371094 414.8125 L 393.980469 369.058594 L 426.453125 336.558594 L 438.449219 324.546875 L 439.496094 323.5 L 471.96875 290.996094 L 504.535156 258.492188 L 550.050781 212.929688 L 556.8125 206.066406 Z M 536.8125 303.765625 L 517.292969 323.308594 L 458.828125 381.832031 L 439.308594 401.375 L 380.839844 459.898438 L 361.320312 479.441406 L 302.855469 537.964844 L 283.332031 557.503906 L 224.867188 616.03125 L 217.535156 623.371094 C 216.773438 622.132812 216.390625 620.511719 216.296875 618.605469 L 231.628906 603.257812 L 270.667969 564.179688 L 309.710938 525.097656 L 348.75 486.015625 L 387.792969 446.9375 L 426.832031 407.855469 L 438.546875 396.132812 L 439.878906 394.796875 L 465.875 368.773438 L 504.914062 329.695312 L 543.957031 290.613281 L 565.570312 268.976562 L 565.570312 274.980469 Z M 530.339844 303.765625 L 517.292969 316.824219 L 452.257812 381.929688 L 439.210938 394.988281 L 374.175781 460.089844 L 361.320312 472.957031 L 296.285156 538.058594 L 283.238281 551.121094 L 218.203125 616.222656 L 216.105469 618.320312 C 216.105469 618.128906 216.105469 617.9375 216.105469 617.746094 L 216.105469 612.21875 L 224.960938 603.355469 L 270.480469 557.792969 L 302.949219 525.289062 L 348.464844 479.726562 L 380.9375 447.222656 L 426.453125 401.660156 L 437.785156 390.316406 L 439.402344 388.695312 L 458.921875 369.15625 L 504.4375 323.59375 L 536.910156 291.089844 L 565 262.972656 L 565 268.976562 Z M 523.863281 303.765625 L 517.390625 310.25 L 445.878906 381.832031 L 439.402344 388.316406 L 367.890625 459.898438 L 361.414062 466.378906 L 289.902344 537.964844 L 283.429688 544.445312 L 216.296875 611.648438 L 216.296875 605.640625 L 218.679688 603.257812 L 270.667969 551.214844 L 296.664062 525.191406 L 348.65625 473.148438 L 374.652344 447.125 L 426.640625 395.082031 L 452.636719 369.058594 L 504.628906 317.015625 L 530.625 290.996094 L 565.285156 256.296875 L 565.285156 262.304688 Z M 517.292969 303.765625 L 439.308594 381.832031 L 283.332031 537.964844 L 216.203125 605.164062 L 216.203125 599.160156 L 270.574219 544.734375 L 290.09375 525.191406 L 348.5625 466.667969 L 368.082031 447.125 L 426.546875 388.601562 L 446.066406 369.058594 L 504.535156 310.535156 L 524.054688 290.996094 L 565.191406 249.816406 L 565.191406 255.820312 Z M 510.820312 303.765625 L 354.84375 459.898438 L 276.859375 537.964844 L 216.105469 598.777344 L 216.105469 592.773438 L 283.429688 525.382812 L 361.414062 447.316406 L 517.390625 291.183594 L 565 243.527344 L 565 249.53125 Z M 504.34375 303.765625 L 426.355469 381.832031 L 348.273438 459.996094 L 270.289062 538.058594 L 216.203125 592.203125 L 216.203125 586.195312 L 270.574219 531.769531 L 348.5625 453.703125 L 355.035156 447.222656 L 426.546875 375.636719 L 504.535156 297.570312 L 565.191406 236.851562 L 565.191406 242.859375 Z M 517.292969 284.226562 L 497.773438 303.765625 L 439.308594 362.386719 L 419.785156 381.929688 L 361.320312 440.453125 L 341.800781 459.996094 L 283.332031 518.519531 L 263.8125 538.058594 L 216.203125 585.71875 L 216.203125 579.714844 L 270.574219 525.289062 L 348.5625 447.222656 L 426.546875 369.15625 L 439.308594 356.382812 L 439.59375 356.097656 L 504.628906 290.996094 L 565.285156 230.277344 L 565.285156 236.28125 Z M 517.292969 277.746094 L 491.296875 303.765625 L 439.308594 355.8125 L 413.3125 381.832031 L 361.320312 433.878906 L 335.324219 459.898438 L 283.238281 512.039062 L 257.242188 538.058594 L 216.105469 579.238281 L 216.105469 573.234375 L 264.003906 525.289062 L 270.480469 518.804688 L 341.992188 447.222656 L 348.464844 440.738281 L 419.976562 369.15625 L 426.453125 362.675781 L 439.117188 349.996094 L 439.496094 349.617188 L 497.964844 291.089844 L 504.4375 284.609375 L 565.09375 223.890625 L 565.09375 229.894531 Z M 562.808594 225.699219 L 517.292969 271.261719 L 484.824219 303.765625 L 439.308594 349.328125 L 406.835938 381.832031 L 361.320312 427.394531 L 328.851562 459.898438 L 283.332031 505.460938 L 250.863281 537.964844 L 216.203125 572.660156 L 216.203125 566.65625 L 257.527344 525.289062 L 270.574219 512.230469 L 335.609375 447.125 L 348.65625 434.066406 L 413.691406 368.964844 L 426.738281 355.90625 L 439.210938 343.417969 L 439.6875 342.941406 L 491.679688 290.898438 L 504.726562 277.839844 L 565.382812 217.121094 L 565.382812 223.128906 Z M 556.335938 225.699219 L 517.292969 264.78125 L 478.253906 303.863281 L 439.210938 342.941406 L 400.171875 382.023438 L 361.128906 421.105469 L 322.089844 460.183594 L 283.046875 499.265625 L 244.007812 538.347656 L 215.917969 566.464844 L 215.917969 560.460938 L 250.769531 525.574219 L 270.289062 506.035156 L 328.753906 447.507812 L 348.273438 427.96875 L 406.742188 369.441406 L 426.261719 349.902344 L 438.640625 337.511719 L 439.308594 336.84375 L 484.824219 291.28125 L 504.34375 271.738281 L 562.808594 213.214844 L 564.90625 211.117188 L 564.90625 217.121094 Z M 549.859375 225.699219 L 517.390625 258.203125 L 471.871094 303.765625 L 439.402344 336.269531 L 393.886719 381.832031 L 361.414062 414.335938 L 315.898438 459.898438 L 283.429688 492.402344 L 237.914062 537.964844 L 216.105469 559.699219 L 216.105469 553.691406 L 244.484375 525.289062 L 270.480469 499.265625 L 322.46875 447.222656 L 348.464844 421.199219 L 400.457031 369.15625 L 426.453125 343.132812 L 438.640625 330.933594 L 439.496094 330.074219 L 478.539062 290.996094 L 504.535156 264.972656 L 556.523438 212.929688 L 565.09375 204.351562 L 565.09375 210.355469 Z M 536.8125 225.699219 L 517.292969 245.242188 L 458.828125 303.765625 L 439.308594 323.308594 L 380.839844 381.832031 L 361.320312 401.375 L 302.855469 459.898438 L 283.332031 479.441406 L 224.867188 537.964844 L 216.296875 546.542969 L 216.296875 540.632812 L 231.628906 525.289062 L 270.667969 486.207031 L 309.710938 447.125 L 348.75 408.046875 L 387.792969 368.964844 L 426.832031 329.882812 L 438.546875 318.160156 L 439.878906 316.824219 L 465.875 290.804688 L 504.914062 251.722656 L 541.859375 214.738281 L 556.144531 206.445312 Z M 217.34375 402.328125 L 216.105469 403.566406 L 216.105469 403.089844 Z M 218.390625 401.660156 L 232.675781 393.367188 L 216.105469 410.046875 L 216.105469 404.042969 Z M 233.816406 392.792969 L 248.101562 384.503906 L 216.105469 416.527344 L 216.105469 410.523438 Z M 249.242188 383.929688 L 263.527344 375.636719 L 257.339844 381.832031 L 216.203125 423.011719 L 216.203125 417.003906 Z M 264.574219 374.96875 L 278.859375 366.675781 L 263.71875 381.832031 L 216.105469 429.492188 L 216.105469 423.488281 Z M 270.480469 375.636719 L 279.90625 366.199219 L 294.1875 357.90625 L 270.191406 381.929688 L 216.105469 436.070312 L 216.105469 430.0625 Z M 283.523438 369.058594 L 295.332031 357.242188 L 309.613281 348.949219 L 276.761719 381.832031 L 216.105469 442.550781 L 216.105469 436.546875 Z M 270.480469 388.601562 L 290 369.058594 L 310.757812 348.28125 L 325.039062 339.988281 L 283.332031 381.738281 L 216.203125 448.9375 L 216.203125 442.933594 Z M 218.488281 447.222656 L 270.480469 395.179688 L 296.472656 369.15625 L 326.089844 339.511719 L 340.371094 331.21875 L 289.714844 381.929688 L 283.238281 388.410156 L 216.105469 455.609375 L 216.105469 449.605469 Z M 224.960938 447.222656 L 270.480469 401.660156 L 302.949219 369.15625 L 341.417969 330.648438 L 355.703125 322.355469 L 296.1875 381.929688 L 283.144531 394.988281 L 218.105469 460.089844 L 216.011719 462.1875 L 216.011719 456.183594 Z M 231.53125 447.222656 L 270.574219 408.140625 L 309.613281 369.058594 L 348.65625 329.980469 L 357.035156 321.589844 L 371.320312 313.300781 L 361.320312 323.308594 L 302.855469 381.832031 L 283.332031 401.375 L 224.867188 459.898438 L 216.296875 468.476562 L 216.296875 462.472656 Z M 238.007812 447.222656 L 270.480469 414.71875 L 315.996094 369.15625 L 348.464844 336.652344 L 372.175781 312.917969 L 386.457031 304.625 L 361.226562 329.882812 L 309.234375 381.832031 L 283.238281 407.855469 L 231.246094 459.898438 L 216.105469 475.054688 L 216.105469 469.050781 Z M 244.484375 447.222656 L 270.480469 421.199219 L 322.46875 369.15625 L 348.464844 343.132812 L 387.601562 303.957031 L 401.886719 295.664062 L 393.789062 303.765625 L 361.320312 336.269531 L 315.804688 381.832031 L 283.332031 414.335938 L 237.816406 459.898438 L 216.203125 481.535156 L 216.203125 475.53125 Z M 250.957031 447.222656 L 270.480469 427.679688 L 328.945312 369.15625 L 348.464844 349.617188 L 402.933594 295.09375 L 417.214844 286.800781 L 400.171875 303.863281 L 361.128906 342.941406 L 322.089844 382.023438 L 283.046875 421.105469 L 244.007812 460.183594 L 215.917969 488.304688 L 215.917969 482.300781 Z M 257.527344 447.222656 L 270.574219 434.164062 L 335.609375 369.058594 L 348.65625 356 L 413.691406 290.898438 L 418.546875 286.039062 L 432.832031 277.746094 L 406.929688 303.671875 L 361.414062 349.234375 L 328.945312 381.738281 L 283.429688 427.300781 L 250.957031 459.804688 L 216.296875 494.5 L 216.296875 488.496094 Z M 264.003906 447.222656 L 270.480469 440.738281 L 341.992188 369.15625 L 348.464844 362.675781 L 419.976562 291.089844 L 426.453125 284.609375 L 433.6875 277.363281 L 447.972656 269.070312 L 439.210938 277.839844 L 413.214844 303.863281 L 361.226562 355.90625 L 335.230469 381.929688 L 283.238281 433.972656 L 257.242188 459.996094 L 216.105469 501.171875 L 216.105469 495.167969 Z M 270.480469 447.222656 L 348.464844 369.15625 L 426.453125 291.089844 L 439.210938 278.316406 L 439.496094 278.03125 L 449.113281 268.402344 L 463.398438 260.109375 L 439.308594 284.226562 L 419.785156 303.765625 L 361.320312 362.386719 L 341.800781 381.929688 L 283.332031 440.453125 L 263.8125 459.996094 L 216.203125 507.652344 L 216.203125 501.554688 Z M 270.480469 453.703125 L 276.953125 447.222656 L 348.464844 375.636719 L 426.453125 297.570312 L 464.539062 259.445312 L 478.824219 251.152344 L 426.261719 303.765625 L 348.273438 381.832031 L 270.289062 459.898438 L 216.203125 514.039062 L 216.203125 508.035156 Z M 283.523438 447.222656 L 361.511719 369.15625 L 439.496094 291.089844 L 479.871094 250.675781 L 494.15625 242.382812 L 432.738281 303.863281 L 276.761719 459.996094 L 216.105469 520.617188 L 216.105469 514.613281 Z M 270.480469 466.667969 L 290 447.125 L 348.464844 388.601562 L 367.984375 369.058594 L 426.453125 310.535156 L 445.972656 290.996094 L 495.296875 241.621094 L 509.582031 233.328125 L 439.308594 303.671875 L 283.332031 459.804688 L 216.203125 527.003906 L 216.203125 521 Z M 218.488281 525.289062 L 270.480469 473.242188 L 296.472656 447.222656 L 348.464844 395.179688 L 374.460938 369.15625 L 426.453125 317.113281 L 452.449219 291.089844 L 504.4375 239.046875 L 510.628906 232.851562 L 524.910156 224.558594 L 523.769531 225.699219 L 517.292969 232.183594 L 445.78125 303.765625 L 439.308594 310.25 L 367.796875 381.832031 L 361.320312 388.316406 L 289.808594 459.898438 L 283.332031 466.378906 L 216.203125 533.582031 L 216.203125 527.574219 Z M 224.960938 525.289062 L 270.480469 479.726562 L 302.949219 447.222656 L 348.464844 401.660156 L 380.9375 369.15625 L 426.453125 323.59375 L 437.785156 312.25 L 439.402344 310.628906 L 458.921875 291.089844 L 504.4375 245.527344 L 525.960938 223.984375 L 540.242188 215.691406 L 530.148438 225.796875 L 517.101562 238.855469 L 452.066406 303.957031 L 439.019531 317.015625 L 373.984375 382.117188 L 360.9375 395.179688 L 295.902344 460.28125 L 283.238281 472.957031 L 218.203125 538.058594 L 216.105469 540.15625 L 216.105469 534.152344 Z M 217.628906 623.753906 L 238.007812 603.355469 L 270.480469 570.851562 L 315.996094 525.289062 L 348.464844 492.785156 L 393.980469 447.222656 L 426.453125 414.71875 L 438.449219 402.707031 L 439.496094 401.660156 L 472.0625 369.058594 L 504.535156 336.558594 L 550.050781 290.996094 L 565.191406 275.839844 L 565.191406 281.84375 L 543.382812 303.671875 L 517.390625 329.695312 L 465.398438 381.738281 L 439.402344 407.761719 L 387.316406 459.996094 L 361.320312 486.015625 L 309.234375 538.058594 L 283.238281 564.082031 L 231.246094 616.125 L 221.4375 625.945312 C 220.675781 625.945312 219.914062 625.753906 219.34375 625.371094 C 218.679688 625.085938 218.105469 624.515625 217.628906 623.753906 Z M 225.25 624.894531 C 224.105469 625.5625 222.960938 625.945312 221.914062 626.039062 L 244.484375 603.355469 L 270.480469 577.332031 L 322.46875 525.289062 L 348.464844 499.265625 L 400.457031 447.222656 L 426.453125 421.199219 L 438.640625 409 L 439.496094 408.140625 L 478.539062 369.058594 L 504.535156 343.039062 L 556.523438 290.996094 L 565.09375 282.414062 L 565.09375 288.421875 L 549.765625 303.765625 L 517.292969 336.269531 L 471.777344 381.832031 L 439.308594 414.335938 L 393.789062 459.898438 L 361.320312 492.402344 L 315.804688 537.964844 L 283.332031 570.46875 L 237.816406 616.03125 L 234.390625 619.460938 Z M 564.714844 419.007812 L 541.957031 441.789062 L 527.671875 450.082031 L 530.53125 447.222656 L 565.191406 412.527344 L 565.191406 414.71875 C 565.191406 416.148438 565 417.578125 564.714844 419.007812 Z M 555 434.257812 L 543.003906 441.214844 L 564.523438 419.675781 C 563.191406 425.773438 559.476562 431.683594 555 434.257812 Z M 526.625 450.652344 L 512.34375 458.945312 L 524.054688 447.222656 L 565.191406 406.042969 L 565.191406 412.050781 Z M 511.199219 459.613281 L 496.917969 467.90625 L 517.578125 447.222656 L 565.191406 399.5625 L 565.191406 405.566406 Z M 504.34375 459.996094 L 495.867188 468.476562 L 481.585938 476.769531 L 511.105469 447.222656 L 565.191406 393.082031 L 565.191406 399.085938 Z M 517.292969 440.453125 L 497.773438 459.996094 L 480.441406 477.34375 L 466.160156 485.636719 L 504.535156 447.222656 L 565.191406 386.503906 L 565.191406 392.507812 Z M 517.292969 433.972656 L 491.296875 459.996094 L 465.015625 486.300781 L 450.734375 494.59375 L 498.058594 447.222656 L 504.535156 440.738281 L 565.191406 380.023438 L 565.191406 386.027344 Z M 562.808594 381.832031 L 517.292969 427.394531 L 484.824219 459.898438 L 449.6875 495.070312 L 435.402344 503.363281 L 439.019531 499.742188 L 439.496094 499.265625 L 491.488281 447.222656 L 504.535156 434.164062 L 565.191406 373.445312 L 565.191406 379.449219 Z M 556.335938 381.832031 L 517.292969 420.914062 L 478.253906 459.996094 L 439.210938 499.074219 L 434.164062 504.128906 L 419.882812 512.417969 L 426.453125 505.84375 L 438.832031 493.453125 L 439.496094 492.785156 L 485.011719 447.222656 L 504.535156 427.679688 L 563 369.15625 L 565.09375 367.058594 L 565.09375 373.0625 Z M 549.859375 381.832031 L 517.390625 414.335938 L 471.871094 459.898438 L 439.402344 492.402344 L 419.023438 512.800781 L 404.742188 521.09375 L 426.644531 499.171875 L 438.832031 486.96875 L 439.6875 486.113281 L 478.730469 447.03125 L 504.722656 421.007812 L 556.714844 368.964844 L 565.285156 360.386719 L 565.285156 366.390625 Z M 543.289062 381.832031 L 517.292969 407.855469 L 465.300781 459.898438 L 439.308594 485.921875 L 403.503906 521.855469 L 389.21875 530.148438 L 393.980469 525.382812 L 426.453125 492.878906 L 438.449219 480.871094 L 439.496094 479.820312 L 472.0625 447.222656 L 504.535156 414.71875 L 550.050781 369.15625 L 565.191406 354 L 565.191406 360.003906 Z M 536.8125 381.832031 L 517.292969 401.375 L 458.828125 459.898438 L 439.308594 479.441406 L 388.171875 530.625 L 373.890625 538.917969 L 387.601562 525.191406 L 426.644531 486.113281 L 438.355469 474.386719 L 439.6875 473.054688 L 465.683594 447.03125 L 504.722656 407.949219 L 543.765625 368.871094 L 565.382812 347.234375 L 565.382812 353.238281 Z M 530.339844 381.832031 L 517.292969 394.890625 L 452.257812 459.996094 L 439.308594 472.957031 L 374.269531 538.058594 L 372.746094 539.585938 L 358.464844 547.878906 L 381.03125 525.289062 L 426.546875 479.726562 L 437.878906 468.382812 L 439.496094 466.761719 L 459.019531 447.222656 L 504.535156 401.660156 L 537.003906 369.15625 L 565.09375 341.035156 L 565.09375 347.042969 Z M 523.863281 381.832031 L 517.390625 388.316406 L 445.878906 459.898438 L 439.402344 466.378906 L 367.890625 537.964844 L 361.414062 544.445312 L 357.511719 548.355469 L 343.226562 556.648438 L 348.65625 551.214844 L 374.652344 525.191406 L 426.640625 473.148438 L 452.636719 447.125 L 504.628906 395.082031 L 530.625 369.058594 L 565.285156 334.363281 L 565.285156 340.371094 Z M 517.292969 381.832031 L 439.308594 459.898438 L 361.320312 537.964844 L 341.992188 557.316406 L 327.707031 565.609375 L 348.5625 544.734375 L 368.082031 525.191406 L 426.546875 466.667969 L 446.066406 447.125 L 504.535156 388.601562 L 524.054688 369.058594 L 565.191406 327.882812 L 565.191406 333.886719 Z M 510.820312 381.832031 L 354.84375 537.964844 L 326.660156 566.179688 L 312.375 574.472656 L 361.605469 525.191406 L 439.59375 447.125 L 517.578125 369.058594 L 565.191406 321.402344 L 565.191406 327.40625 Z M 504.34375 381.832031 L 426.355469 459.898438 L 348.273438 538.058594 L 311.234375 575.140625 L 296.949219 583.433594 L 348.5625 531.769531 L 433.023438 447.222656 L 439.308594 440.929688 L 439.496094 440.738281 L 504.535156 375.636719 L 565.191406 314.917969 L 565.191406 320.925781 Z M 517.292969 362.386719 L 497.773438 381.832031 L 439.308594 440.359375 L 419.785156 459.898438 L 361.320312 518.425781 L 341.800781 537.964844 L 295.902344 583.910156 L 281.621094 592.203125 L 348.5625 525.191406 L 426.546875 447.125 L 439.308594 434.355469 L 439.59375 434.066406 L 504.628906 368.964844 L 565.285156 308.246094 L 565.285156 314.253906 Z M 517.292969 355.8125 L 491.296875 381.832031 L 439.308594 433.878906 L 413.3125 459.898438 L 361.320312 512.039062 L 335.324219 538.058594 L 283.332031 590.105469 L 280.570312 592.867188 L 266.289062 601.160156 L 270.574219 596.871094 L 342.085938 525.289062 L 348.5625 518.804688 L 420.070312 447.222656 L 426.546875 440.738281 L 439.210938 428.0625 L 439.59375 427.679688 L 498.058594 369.15625 L 504.535156 362.675781 L 565.191406 301.957031 L 565.191406 307.960938 Z M 562.808594 303.765625 L 517.292969 349.328125 L 484.824219 381.832031 L 439.308594 427.394531 L 406.835938 459.898438 L 361.320312 505.460938 L 328.851562 537.964844 L 283.332031 583.527344 L 265.144531 601.734375 L 250.863281 610.027344 L 257.527344 603.355469 L 270.574219 590.296875 L 335.609375 525.191406 L 348.65625 512.132812 L 413.691406 447.03125 L 426.738281 433.972656 L 439.210938 421.484375 L 439.6875 421.007812 L 491.679688 368.964844 L 504.726562 355.90625 L 565.382812 295.1875 L 565.382812 301.195312 Z M 556.335938 303.765625 L 517.292969 342.847656 L 478.253906 381.929688 L 439.210938 421.007812 L 400.171875 460.089844 L 361.128906 499.171875 L 322.089844 538.25 L 283.046875 577.332031 L 249.433594 610.882812 L 235.152344 619.175781 L 250.769531 603.542969 L 270.289062 584.003906 L 328.753906 525.476562 L 348.273438 505.9375 L 406.742188 447.414062 L 426.261719 427.871094 L 438.640625 415.480469 L 439.308594 414.8125 L 484.824219 369.25 L 504.34375 349.710938 L 562.808594 291.183594 L 564.90625 289.089844 L 564.90625 295.09375 Z M 556.335938 303.765625 " fill-opacity="1" fill-rule="nonzero"/><path fill="#f0abc1" d="M 224.105469 387.457031 C 224.105469 388.792969 224.488281 389.746094 225.25 390.222656 C 226.011719 390.601562 227.058594 390.507812 228.199219 389.839844 C 230.960938 388.21875 233.34375 384.121094 233.34375 380.976562 C 233.34375 379.640625 232.960938 378.6875 232.199219 378.210938 C 231.914062 378.019531 231.628906 378.019531 231.246094 378.019531 C 230.675781 378.019531 229.914062 378.210938 229.246094 378.6875 C 226.390625 380.117188 224.105469 384.214844 224.105469 387.457031 Z M 224.105469 387.457031 " fill-opacity="1" fill-rule="nonzero"/><path fill="#94ddde" d="M 239.625 378.496094 C 239.625 379.832031 240.007812 380.785156 240.769531 381.261719 C 241.53125 381.640625 242.578125 381.546875 243.722656 380.878906 C 246.484375 379.257812 248.863281 375.160156 248.863281 372.015625 C 248.863281 370.679688 248.480469 369.726562 247.71875 369.25 C 247.433594 369.058594 247.148438 369.058594 246.769531 369.058594 C 246.195312 369.058594 245.433594 369.25 244.769531 369.726562 C 242.007812 371.15625 239.625 375.257812 239.625 378.496094 Z M 239.625 378.496094 " fill-opacity="1" fill-rule="nonzero"/><path fill="#fefefe" d="M 255.527344 369.25 C 255.527344 370.585938 255.910156 371.539062 256.671875 372.015625 C 257.433594 372.398438 258.480469 372.300781 259.625 371.632812 C 262.382812 370.011719 264.765625 365.914062 264.765625 362.769531 C 264.765625 361.433594 264.382812 360.480469 263.621094 360.003906 C 263.335938 359.816406 263.050781 359.816406 262.671875 359.816406 C 262.097656 359.816406 261.335938 360.003906 260.671875 360.480469 C 257.910156 362.007812 255.527344 366.011719 255.527344 369.25 Z M 255.527344 369.25 " fill-opacity="1" fill-rule="nonzero"/><path fill="#fefefe" d="M 581.28125 199.011719 L 251.433594 389.648438 C 245.53125 393.082031 240.769531 402.230469 240.769531 410.046875 L 240.769531 632.902344 C 240.769531 640.8125 245.53125 644.4375 251.433594 641.003906 L 581.28125 450.367188 C 587.1875 446.9375 591.949219 437.785156 591.949219 429.96875 L 591.949219 207.113281 C 591.949219 199.203125 587.1875 195.582031 581.28125 199.011719 Z M 581.28125 199.011719 " fill-opacity="1" fill-rule="nonzero"/><path fill="#143c3c" d="M 588.804688 197.488281 C 586.519531 196.152344 583.664062 196.34375 580.710938 198.058594 L 250.863281 388.695312 C 244.671875 392.316406 239.625 401.851562 239.625 410.046875 L 239.625 632.902344 C 239.625 637.476562 241.148438 640.910156 243.816406 642.53125 C 244.769531 643.101562 245.910156 643.386719 247.054688 643.386719 C 248.578125 643.386719 250.195312 642.910156 251.816406 641.957031 L 581.664062 451.320312 C 587.851562 447.699219 592.898438 438.167969 592.898438 429.96875 L 592.898438 207.113281 C 592.996094 202.539062 591.472656 199.105469 588.804688 197.488281 Z M 580.710938 449.414062 L 250.863281 640.050781 C 248.671875 641.289062 246.578125 641.578125 244.960938 640.625 C 242.960938 639.480469 241.816406 636.621094 241.816406 632.902344 L 241.816406 418.148438 L 590.804688 216.457031 L 590.804688 429.96875 C 590.804688 437.402344 586.328125 446.171875 580.710938 449.414062 Z M 580.710938 449.414062 " fill-opacity="1" fill-rule="nonzero"/><path fill="#f0abc1" d="M 249.71875 402.613281 C 249.71875 403.945312 250.101562 404.898438 250.863281 405.375 C 251.625 405.757812 252.671875 405.664062 253.816406 404.996094 C 256.574219 403.375 258.957031 399.277344 258.957031 396.132812 C 258.957031 394.796875 258.574219 393.84375 257.8125 393.367188 C 257.527344 393.175781 257.242188 393.175781 256.863281 393.175781 C 256.289062 393.175781 255.527344 393.367188 254.863281 393.84375 C 252.101562 395.273438 249.71875 399.371094 249.71875 402.613281 Z M 249.71875 402.613281 " fill-opacity="1" fill-rule="nonzero"/><path fill="#94ddde" d="M 265.242188 393.652344 C 265.242188 394.988281 265.621094 395.941406 266.382812 396.417969 C 267.144531 396.796875 268.191406 396.703125 269.335938 396.035156 C 272.097656 394.414062 274.476562 390.316406 274.476562 387.171875 C 274.476562 385.835938 274.097656 384.882812 273.335938 384.40625 C 273.050781 384.214844 272.765625 384.214844 272.382812 384.214844 C 271.8125 384.214844 271.050781 384.40625 270.382812 384.882812 C 267.621094 386.3125 265.242188 390.410156 265.242188 393.652344 Z M 265.242188 393.652344 " fill-opacity="1" fill-rule="nonzero"/><path fill="#fefefe" d="M 281.238281 384.40625 C 281.238281 385.742188 281.621094 386.695312 282.382812 387.171875 C 283.144531 387.550781 284.191406 387.457031 285.332031 386.789062 C 288.09375 385.167969 290.476562 381.070312 290.476562 377.925781 C 290.476562 376.589844 290.09375 375.636719 289.332031 375.160156 C 289.046875 374.96875 288.761719 374.96875 288.378906 374.96875 C 287.808594 374.96875 287.046875 375.160156 286.378906 375.636719 C 283.621094 377.164062 281.238281 381.164062 281.238281 384.40625 Z M 281.238281 384.40625 " fill-opacity="1" fill-rule="nonzero"/><path fill="#f0abc1" d="M 436.261719 437.59375 L 297.046875 518.042969 L 297.046875 416.433594 L 436.261719 335.984375 Z M 436.261719 437.59375 " fill-opacity="1" fill-rule="nonzero"/><path fill="#94ddde" d="M 535.671875 320.828125 L 450.449219 370.109375 L 450.449219 327.789062 L 535.671875 278.507812 Z M 535.671875 334.078125 L 450.449219 383.359375 L 450.449219 429.492188 L 535.671875 380.210938 Z M 535.671875 334.078125 " fill-opacity="1" fill-rule="nonzero"/><path fill="#143c3c" d="M 437.402344 438.167969 L 437.402344 334.078125 L 296.570312 415.480469 L 296 415.765625 L 296 519.855469 L 436.832031 438.546875 Z M 435.210938 436.925781 L 298.1875 516.136719 L 298.1875 417.101562 L 435.210938 337.890625 Z M 435.210938 436.925781 " fill-opacity="1" fill-rule="nonzero"/><path fill="#143c3c" d="M 449.875 326.835938 L 449.304688 327.121094 L 449.304688 371.921875 L 536.148438 321.78125 L 536.71875 321.496094 L 536.71875 276.695312 Z M 534.527344 320.257812 L 451.496094 368.203125 L 451.496094 328.453125 L 534.527344 280.507812 Z M 534.527344 320.257812 " fill-opacity="1" fill-rule="nonzero"/><path fill="#143c3c" d="M 449.304688 382.691406 L 449.304688 431.304688 L 536.148438 381.164062 L 536.71875 380.878906 L 536.71875 332.265625 L 449.875 382.40625 Z M 451.496094 383.929688 L 534.527344 335.984375 L 534.527344 379.546875 L 451.496094 427.492188 Z M 451.496094 383.929688 " fill-opacity="1" fill-rule="nonzero"/><path fill="#143c3c" d="M 297.046875 546.257812 L 462.730469 450.460938 L 462.730469 444.648438 L 297.046875 540.347656 Z M 297.046875 546.257812 " fill-opacity="1" fill-rule="nonzero"/><path fill="#143c3c" d="M 297.046875 576.378906 L 462.730469 480.582031 L 462.730469 474.769531 L 297.046875 570.5625 Z M 297.046875 576.378906 " fill-opacity="1" fill-rule="nonzero"/><path fill="#143c3c" d="M 297.046875 591.4375 L 462.730469 495.738281 L 462.730469 489.828125 L 297.046875 585.625 Z M 297.046875 591.4375 " fill-opacity="1" fill-rule="nonzero"/><path fill="#143c3c" d="M 297.046875 561.316406 L 462.730469 465.523438 L 462.730469 459.707031 L 297.046875 555.503906 Z M 297.046875 561.316406 " fill-opacity="1" fill-rule="nonzero"/><g fill="#8d8d8d" fill-opacity="1"><g transform="translate(771.53903, 387.723281)"><g><path d="M 14.453125 -53.765625 L 14.453125 -6.34375 C 14.453125 -3.15625 14.125 -1.300781 13.46875 -0.78125 C 12.8125 -0.257812 10.644531 0 6.96875 0 L 4.6875 0 L 4.6875 -74.875 L 7.078125 -74.875 C 10.398438 -74.875 12.476562 -74.628906 13.3125 -74.140625 C 14.144531 -73.660156 15.21875 -72 16.53125 -69.15625 L 27.875 -43.265625 L 29.953125 -43.265625 L 43.890625 -74.875 L 45.453125 -74.875 C 49.191406 -74.875 51.390625 -74.613281 52.046875 -74.09375 C 52.710938 -73.570312 53.046875 -71.71875 53.046875 -68.53125 L 53.046875 0 L 50.75 0 C 47.007812 0 44.828125 -0.257812 44.203125 -0.78125 C 43.578125 -1.300781 43.265625 -3.15625 43.265625 -6.34375 L 43.15625 -53.65625 L 42.84375 -53.65625 L 35.15625 -35.046875 L 32.34375 -29.84375 L 25.484375 -29.84375 L 22.671875 -35.046875 L 14.765625 -53.765625 Z M 14.453125 -53.765625 "/></g></g></g><g fill="#8d8d8d" fill-opacity="1"><g transform="translate(829.358641, 387.723281)"><g><path d="M 41.5 0 C 37.957031 0 35.820312 -0.273438 35.09375 -0.828125 C 34.375 -1.378906 33.703125 -3.21875 33.078125 -6.34375 L 29.53125 -23.921875 L 16.4375 -23.921875 L 12.171875 0 L 9.78125 0 C 6.445312 0 4.328125 -0.1875 3.421875 -0.5625 C 2.523438 -0.945312 2.078125 -1.847656 2.078125 -3.265625 C 2.078125 -4.691406 7.347656 -28.5625 17.890625 -74.875 L 27.875 -74.875 L 44.921875 0 Z M 22.359375 -55.953125 L 18.515625 -35.671875 L 17.6875 -33.90625 L 28.390625 -33.90625 C 28.316406 -33.976562 28.140625 -34.304688 27.859375 -34.890625 C 27.585938 -35.484375 27.453125 -35.8125 27.453125 -35.875 L 23.40625 -55.953125 Z M 22.359375 -55.953125 "/></g></g></g><g fill="#8d8d8d" fill-opacity="1"><g transform="translate(876.363072, 387.723281)"><g><path d="M 30.78125 -22.875 L 30.78125 -74.875 L 33.078125 -74.875 C 36.816406 -74.875 39 -74.613281 39.625 -74.09375 C 40.25 -73.570312 40.5625 -71.71875 40.5625 -68.53125 L 40.5625 0 L 37.4375 0 C 33.96875 0 31.816406 -0.257812 30.984375 -0.78125 C 30.160156 -1.300781 29.257812 -2.984375 28.28125 -5.828125 L 14.875 -50.75 L 14.359375 -50.75 L 14.359375 -6.34375 C 14.359375 -3.15625 14.046875 -1.300781 13.421875 -0.78125 C 12.796875 -0.257812 10.609375 0 6.859375 0 L 4.6875 0 L 4.6875 -74.875 L 6.96875 -74.875 C 10.363281 -74.875 12.441406 -74.628906 13.203125 -74.140625 C 13.972656 -73.660156 14.910156 -71.96875 16.015625 -69.0625 L 30.265625 -22.875 Z M 30.78125 -22.875 "/></g></g></g><g fill="#8d8d8d" fill-opacity="1"><g transform="translate(921.703623, 387.723281)"><g><path d="M 33.703125 -31.203125 L 33.703125 -74.875 L 36.296875 -74.875 C 39.972656 -74.875 42.140625 -74.613281 42.796875 -74.09375 C 43.453125 -73.570312 43.78125 -71.71875 43.78125 -68.53125 L 43.78125 -31.203125 C 43.78125 -20.523438 43.519531 -14.265625 43 -12.421875 C 42.476562 -10.585938 41.921875 -8.835938 41.328125 -7.171875 C 40.742188 -5.515625 40 -4.320312 39.09375 -3.59375 C 38.195312 -2.863281 37.09375 -2.082031 35.78125 -1.25 C 33.5625 0.0703125 29.921875 0.734375 24.859375 0.734375 C 20.765625 0.734375 17.9375 0.382812 16.375 -0.3125 C 14.820312 -1.007812 13.59375 -1.582031 12.6875 -2.03125 C 11.789062 -2.476562 10.992188 -3.253906 10.296875 -4.359375 C 9.597656 -5.472656 9.023438 -6.375 8.578125 -7.0625 C 8.128906 -7.757812 7.765625 -8.957031 7.484375 -10.65625 C 7.210938 -12.351562 6.988281 -13.6875 6.8125 -14.65625 C 6.632812 -15.632812 6.507812 -17.285156 6.4375 -19.609375 C 6.375 -21.929688 6.34375 -23.710938 6.34375 -24.953125 L 6.34375 -74.875 L 8.84375 -74.875 C 12.582031 -74.875 14.765625 -74.613281 15.390625 -74.09375 C 16.015625 -73.570312 16.328125 -71.71875 16.328125 -68.53125 L 16.328125 -27.875 C 16.328125 -20.3125 16.796875 -15.195312 17.734375 -12.53125 C 18.671875 -9.863281 21.046875 -8.53125 24.859375 -8.53125 C 26.316406 -8.53125 27.546875 -8.6875 28.546875 -9 C 29.554688 -9.3125 30.390625 -9.984375 31.046875 -11.015625 C 31.703125 -12.054688 32.21875 -13.007812 32.59375 -13.875 C 32.976562 -14.75 33.242188 -16.296875 33.390625 -18.515625 C 33.597656 -21.773438 33.703125 -26.003906 33.703125 -31.203125 Z M 33.703125 -31.203125 "/></g></g></g><g fill="#8d8d8d" fill-opacity="1"><g transform="translate(970.683887, 387.723281)"><g><path d="M 35.671875 -66.046875 L 22.984375 -66.046875 L 23.921875 -63.4375 L 23.921875 -6.34375 C 23.921875 -3.15625 23.585938 -1.300781 22.921875 -0.78125 C 22.265625 -0.257812 20.066406 0 16.328125 0 L 13.828125 0 L 13.828125 -63.4375 L 14.5625 -66.046875 L 2.078125 -66.046875 L 2.078125 -74.875 L 35.671875 -74.875 Z M 35.671875 -66.046875 "/></g></g></g><g fill="#8d8d8d" fill-opacity="1"><g transform="translate(1008.433023, 387.723281)"><g><path d="M 38.890625 -9.25 L 38.890625 0 L 6.234375 0 L 6.234375 -74.875 L 37.859375 -74.875 L 37.859375 -66.046875 L 15.5 -66.046875 L 16.4375 -63.4375 L 16.4375 -47.53125 L 15.5 -44.921875 L 36.609375 -44.921875 L 36.609375 -35.671875 L 15.59375 -35.671875 L 16.4375 -33.28125 L 16.4375 -11.859375 L 15.5 -9.25 Z M 38.890625 -9.25 "/></g></g></g><g fill="#8d8d8d" fill-opacity="1"><g transform="translate(1050.445815, 387.723281)"><g><path d="M 30.78125 -22.875 L 30.78125 -74.875 L 33.078125 -74.875 C 36.816406 -74.875 39 -74.613281 39.625 -74.09375 C 40.25 -73.570312 40.5625 -71.71875 40.5625 -68.53125 L 40.5625 0 L 37.4375 0 C 33.96875 0 31.816406 -0.257812 30.984375 -0.78125 C 30.160156 -1.300781 29.257812 -2.984375 28.28125 -5.828125 L 14.875 -50.75 L 14.359375 -50.75 L 14.359375 -6.34375 C 14.359375 -3.15625 14.046875 -1.300781 13.421875 -0.78125 C 12.796875 -0.257812 10.609375 0 6.859375 0 L 4.6875 0 L 4.6875 -74.875 L 6.96875 -74.875 C 10.363281 -74.875 12.441406 -74.628906 13.203125 -74.140625 C 13.972656 -73.660156 14.910156 -71.96875 16.015625 -69.0625 L 30.265625 -22.875 Z M 30.78125 -22.875 "/></g></g></g><g fill="#8d8d8d" fill-opacity="1"><g transform="translate(1095.786366, 387.723281)"><g><path d="M 38.6875 -1.140625 L 28.1875 0.515625 L 28.1875 12.171875 C 28.1875 14.804688 27.851562 16.46875 27.1875 17.15625 C 26.53125 17.851562 24.882812 18.203125 22.25 18.203125 L 18.828125 18.203125 C 15.429688 18.203125 13.453125 17.890625 12.890625 17.265625 C 12.335938 16.640625 12.0625 14.457031 12.0625 10.71875 L 20.703125 10.71875 L 20.703125 0.515625 C 16.816406 0.0351562 13.519531 -1.59375 10.8125 -4.375 C 9.144531 -6.175781 7.691406 -9.707031 6.453125 -14.96875 C 5.617188 -18.300781 5.203125 -26 5.203125 -38.0625 L 5.203125 -45.03125 C 5.203125 -50.019531 5.375 -53.675781 5.71875 -56 C 6.0625 -58.320312 6.441406 -60.523438 6.859375 -62.609375 C 7.273438 -64.691406 7.796875 -66.269531 8.421875 -67.34375 C 9.046875 -68.414062 9.84375 -69.609375 10.8125 -70.921875 C 11.78125 -72.242188 12.890625 -73.21875 14.140625 -73.84375 C 17.191406 -75.363281 20.519531 -76.125 24.125 -76.125 L 38.578125 -72.796875 C 38.023438 -68.773438 36.988281 -66.28125 35.46875 -65.3125 C 34.632812 -64.820312 33.453125 -64.578125 31.921875 -64.578125 C 30.398438 -64.578125 28.597656 -64.785156 26.515625 -65.203125 L 23.609375 -65.9375 C 21.671875 -65.9375 20.109375 -65.3125 18.921875 -64.0625 C 17.742188 -62.8125 16.910156 -60.644531 16.421875 -57.5625 C 15.941406 -54.476562 15.648438 -51.722656 15.546875 -49.296875 C 15.441406 -46.867188 15.390625 -43.125 15.390625 -38.0625 C 15.390625 -33 15.441406 -29.253906 15.546875 -26.828125 C 15.648438 -24.398438 15.941406 -21.644531 16.421875 -18.5625 C 16.910156 -15.476562 17.742188 -13.3125 18.921875 -12.0625 C 20.109375 -10.8125 21.707031 -10.1875 23.71875 -10.1875 C 25.726562 -10.1875 28.460938 -10.34375 31.921875 -10.65625 C 35.390625 -10.96875 37.644531 -11.160156 38.6875 -11.234375 Z M 38.6875 -1.140625 "/></g></g></g><g fill="#8d8d8d" fill-opacity="1"><g transform="translate(1138.631098, 387.723281)"><g><path d="M 41.5 0 C 37.957031 0 35.820312 -0.273438 35.09375 -0.828125 C 34.375 -1.378906 33.703125 -3.21875 33.078125 -6.34375 L 29.53125 -23.921875 L 16.4375 -23.921875 L 12.171875 0 L 9.78125 0 C 6.445312 0 4.328125 -0.1875 3.421875 -0.5625 C 2.523438 -0.945312 2.078125 -1.847656 2.078125 -3.265625 C 2.078125 -4.691406 7.347656 -28.5625 17.890625 -74.875 L 27.875 -74.875 L 44.921875 0 Z M 22.359375 -55.953125 L 18.515625 -35.671875 L 17.6875 -33.90625 L 28.390625 -33.90625 C 28.316406 -33.976562 28.140625 -34.304688 27.859375 -34.890625 C 27.585938 -35.484375 27.453125 -35.8125 27.453125 -35.875 L 23.40625 -55.953125 Z M 36.5 -88.71875 C 36.5 -86.289062 36.1875 -84.882812 35.5625 -84.5 C 34.9375 -84.113281 33.238281 -83.921875 30.46875 -83.921875 C 27.695312 -83.921875 24.800781 -84.09375 21.78125 -84.4375 C 18.769531 -84.789062 16.46875 -84.96875 14.875 -84.96875 C 13.28125 -84.96875 12.238281 -84.898438 11.75 -84.765625 L 8.3125 -84.96875 L 8.3125 -88.8125 C 8.3125 -91.175781 8.625 -92.546875 9.25 -92.921875 C 9.875 -93.304688 11.535156 -93.5 14.234375 -93.5 C 16.941406 -93.5 19.785156 -93.34375 22.765625 -93.03125 C 25.753906 -92.71875 28.113281 -92.5625 29.84375 -92.5625 C 31.582031 -92.5625 32.691406 -92.597656 33.171875 -92.671875 L 36.5 -92.5625 Z M 36.5 -88.71875 "/></g></g></g><g fill="#8d8d8d" fill-opacity="1"><g transform="translate(1185.635505, 387.723281)"><g><path d="M 25.421875 0.734375 C 17.554688 0.734375 12.21875 -2.242188 9.40625 -8.203125 C 6.601562 -14.171875 5.203125 -24.019531 5.203125 -37.75 C 5.203125 -51.476562 6.691406 -61.304688 9.671875 -67.234375 C 12.648438 -73.160156 17.898438 -76.125 25.421875 -76.125 C 32.953125 -76.125 38.171875 -73.175781 41.078125 -67.28125 C 43.992188 -61.394531 45.453125 -51.550781 45.453125 -37.75 C 45.453125 -23.957031 44.082031 -14.09375 41.34375 -8.15625 C 38.601562 -2.226562 33.296875 0.734375 25.421875 0.734375 Z M 15.078125 -38.0625 C 15.078125 -28.144531 15.835938 -20.742188 17.359375 -15.859375 C 18.890625 -10.972656 21.578125 -8.53125 25.421875 -8.53125 C 29.273438 -8.53125 31.960938 -10.972656 33.484375 -15.859375 C 35.015625 -20.742188 35.78125 -28.109375 35.78125 -37.953125 C 35.78125 -57.234375 32.328125 -66.875 25.421875 -66.875 C 18.523438 -66.875 15.078125 -57.269531 15.078125 -38.0625 Z M 15.078125 -38.0625 "/></g></g></g><g fill="#4d4d4d" fill-opacity="1"><g transform="translate(759.714812, 450.753285)"><g><path d="M 1.59375 -3.953125 C 4.257812 -3.691406 6.207031 -3.5625 7.4375 -3.5625 C 8.664062 -3.5625 9.515625 -3.65625 9.984375 -3.84375 C 10.453125 -4.03125 10.804688 -4.25 11.046875 -4.5 C 11.285156 -4.75 11.457031 -5.128906 11.5625 -5.640625 C 11.695312 -6.273438 11.765625 -7.0625 11.765625 -8 C 11.765625 -8.9375 11.535156 -9.75 11.078125 -10.4375 C 10.628906 -11.132812 10.207031 -11.65625 9.8125 -12 C 9.425781 -12.34375 8.726562 -12.953125 7.71875 -13.828125 C 6.707031 -14.710938 5.992188 -15.347656 5.578125 -15.734375 C 5.160156 -16.117188 4.582031 -16.726562 3.84375 -17.5625 C 2.476562 -19.050781 1.796875 -20.609375 1.796875 -22.234375 C 1.796875 -25.066406 2.09375 -26.800781 2.6875 -27.4375 C 3.59375 -28.375 4.5625 -28.914062 5.59375 -29.0625 C 6.632812 -29.207031 7.742188 -29.28125 8.921875 -29.28125 L 14.359375 -28.125 C 14.148438 -26.601562 13.84375 -25.707031 13.4375 -25.4375 C 13.25 -25.28125 12.921875 -25.203125 12.453125 -25.203125 C 11.992188 -25.203125 11.390625 -25.28125 10.640625 -25.4375 L 9.125 -25.71875 C 7.550781 -25.71875 6.585938 -25.398438 6.234375 -24.765625 C 6.023438 -24.410156 5.898438 -24.085938 5.859375 -23.796875 C 5.816406 -23.503906 5.796875 -23.066406 5.796875 -22.484375 C 5.796875 -21.390625 7.144531 -19.707031 9.84375 -17.4375 C 11.125 -16.425781 12.125 -15.570312 12.84375 -14.875 C 13.5625 -14.1875 14.238281 -13.347656 14.875 -12.359375 C 15.519531 -11.367188 15.84375 -10.429688 15.84375 -9.546875 C 15.84375 -8.671875 15.832031 -8 15.8125 -7.53125 C 15.800781 -7.070312 15.75 -6.4375 15.65625 -5.625 C 15.5625 -4.8125 15.421875 -4.175781 15.234375 -3.71875 C 15.046875 -3.269531 14.765625 -2.75 14.390625 -2.15625 C 14.023438 -1.570312 13.578125 -1.132812 13.046875 -0.84375 C 11.679688 -0.09375 10.050781 0.28125 8.15625 0.28125 C 7.09375 0.28125 5.851562 0.15625 4.4375 -0.09375 C 3.019531 -0.351562 2.070312 -0.507812 1.59375 -0.5625 Z M 1.59375 -3.953125 "/></g></g></g><g fill="#4d4d4d" fill-opacity="1"><g transform="translate(777.153077, 450.753285)"><g><path d="M 2.40625 -2.4375 L 2.40625 -28.796875 L 3.234375 -28.796875 C 4.703125 -28.796875 5.5625 -28.695312 5.8125 -28.5 C 6.070312 -28.300781 6.203125 -27.585938 6.203125 -26.359375 L 6.203125 0 L 5.28125 0 C 3.84375 0 3.003906 -0.0976562 2.765625 -0.296875 C 2.523438 -0.492188 2.40625 -1.207031 2.40625 -2.4375 Z M 2.40625 -2.4375 "/></g></g></g><g fill="#4d4d4d" fill-opacity="1"><g transform="translate(785.752225, 450.753285)"><g><path d="M 13.71875 -25.40625 L 8.84375 -25.40625 L 9.203125 -24.40625 L 9.203125 -2.4375 C 9.203125 -1.207031 9.070312 -0.492188 8.8125 -0.296875 C 8.5625 -0.0976562 7.71875 0 6.28125 0 L 5.3125 0 L 5.3125 -24.40625 L 5.59375 -25.40625 L 0.796875 -25.40625 L 0.796875 -28.796875 L 13.71875 -28.796875 Z M 13.71875 -25.40625 "/></g></g></g><g fill="#4d4d4d" fill-opacity="1"><g transform="translate(800.270783, 450.753285)"><g><path d="M 14.953125 -3.5625 L 14.953125 0 L 2.40625 0 L 2.40625 -28.796875 L 14.5625 -28.796875 L 14.5625 -25.40625 L 5.953125 -25.40625 L 6.3125 -24.40625 L 6.3125 -18.28125 L 5.953125 -17.28125 L 14.078125 -17.28125 L 14.078125 -13.71875 L 6 -13.71875 L 6.3125 -12.796875 L 6.3125 -4.5625 L 5.953125 -3.5625 Z M 14.953125 -3.5625 "/></g></g></g><g fill="#4d4d4d" fill-opacity="1"><g transform="translate(816.429175, 450.753285)"><g/></g></g><g fill="#4d4d4d" fill-opacity="1"><g transform="translate(824.028418, 450.753285)"><g><path d="M 14.953125 -3.5625 L 14.953125 0 L 2.40625 0 L 2.40625 -28.796875 L 14.5625 -28.796875 L 14.5625 -25.40625 L 5.953125 -25.40625 L 6.3125 -24.40625 L 6.3125 -18.28125 L 5.953125 -17.28125 L 14.078125 -17.28125 L 14.078125 -13.71875 L 6 -13.71875 L 6.3125 -12.796875 L 6.3125 -4.5625 L 5.953125 -3.5625 Z M 14.953125 -3.5625 "/></g></g></g><g fill="#4d4d4d" fill-opacity="1"><g transform="translate(840.186811, 450.753285)"><g><path d="M 1.59375 -3.953125 C 4.257812 -3.691406 6.207031 -3.5625 7.4375 -3.5625 C 8.664062 -3.5625 9.515625 -3.65625 9.984375 -3.84375 C 10.453125 -4.03125 10.804688 -4.25 11.046875 -4.5 C 11.285156 -4.75 11.457031 -5.128906 11.5625 -5.640625 C 11.695312 -6.273438 11.765625 -7.0625 11.765625 -8 C 11.765625 -8.9375 11.535156 -9.75 11.078125 -10.4375 C 10.628906 -11.132812 10.207031 -11.65625 9.8125 -12 C 9.425781 -12.34375 8.726562 -12.953125 7.71875 -13.828125 C 6.707031 -14.710938 5.992188 -15.347656 5.578125 -15.734375 C 5.160156 -16.117188 4.582031 -16.726562 3.84375 -17.5625 C 2.476562 -19.050781 1.796875 -20.609375 1.796875 -22.234375 C 1.796875 -25.066406 2.09375 -26.800781 2.6875 -27.4375 C 3.59375 -28.375 4.5625 -28.914062 5.59375 -29.0625 C 6.632812 -29.207031 7.742188 -29.28125 8.921875 -29.28125 L 14.359375 -28.125 C 14.148438 -26.601562 13.84375 -25.707031 13.4375 -25.4375 C 13.25 -25.28125 12.921875 -25.203125 12.453125 -25.203125 C 11.992188 -25.203125 11.390625 -25.28125 10.640625 -25.4375 L 9.125 -25.71875 C 7.550781 -25.71875 6.585938 -25.398438 6.234375 -24.765625 C 6.023438 -24.410156 5.898438 -24.085938 5.859375 -23.796875 C 5.816406 -23.503906 5.796875 -23.066406 5.796875 -22.484375 C 5.796875 -21.390625 7.144531 -19.707031 9.84375 -17.4375 C 11.125 -16.425781 12.125 -15.570312 12.84375 -14.875 C 13.5625 -14.1875 14.238281 -13.347656 14.875 -12.359375 C 15.519531 -11.367188 15.84375 -10.429688 15.84375 -9.546875 C 15.84375 -8.671875 15.832031 -8 15.8125 -7.53125 C 15.800781 -7.070312 15.75 -6.4375 15.65625 -5.625 C 15.5625 -4.8125 15.421875 -4.175781 15.234375 -3.71875 C 15.046875 -3.269531 14.765625 -2.75 14.390625 -2.15625 C 14.023438 -1.570312 13.578125 -1.132812 13.046875 -0.84375 C 11.679688 -0.09375 10.050781 0.28125 8.15625 0.28125 C 7.09375 0.28125 5.851562 0.15625 4.4375 -0.09375 C 3.019531 -0.351562 2.070312 -0.507812 1.59375 -0.5625 Z M 1.59375 -3.953125 "/></g></g></g><g fill="#4d4d4d" fill-opacity="1"><g transform="translate(857.625077, 450.753285)"><g><path d="M 13.71875 -25.40625 L 8.84375 -25.40625 L 9.203125 -24.40625 L 9.203125 -2.4375 C 9.203125 -1.207031 9.070312 -0.492188 8.8125 -0.296875 C 8.5625 -0.0976562 7.71875 0 6.28125 0 L 5.3125 0 L 5.3125 -24.40625 L 5.59375 -25.40625 L 0.796875 -25.40625 L 0.796875 -28.796875 L 13.71875 -28.796875 Z M 13.71875 -25.40625 "/></g></g></g><g fill="#4d4d4d" fill-opacity="1"><g transform="translate(872.143635, 450.753285)"><g><path d="M 15.953125 0 C 14.597656 0 13.78125 -0.101562 13.5 -0.3125 C 13.21875 -0.53125 12.957031 -1.238281 12.71875 -2.4375 L 11.359375 -9.203125 L 6.3125 -9.203125 L 4.6875 0 L 3.765625 0 C 2.484375 0 1.664062 -0.0703125 1.3125 -0.21875 C 0.96875 -0.363281 0.796875 -0.707031 0.796875 -1.25 C 0.796875 -1.800781 2.820312 -10.984375 6.875 -28.796875 L 10.71875 -28.796875 L 17.28125 0 Z M 8.59375 -21.515625 L 7.125 -13.71875 L 6.796875 -13.046875 L 10.921875 -13.046875 C 10.890625 -13.066406 10.820312 -13.191406 10.71875 -13.421875 C 10.613281 -13.648438 10.5625 -13.773438 10.5625 -13.796875 L 9 -21.515625 Z M 8.59375 -21.515625 "/></g></g></g><g fill="#4d4d4d" fill-opacity="1"><g transform="translate(890.221843, 450.753285)"><g><path d="M 3.359375 0 L 2.40625 0 L 2.40625 -28.84375 L 8.125 -29.28125 C 10.519531 -29.28125 12.171875 -28.929688 13.078125 -28.234375 C 13.421875 -27.972656 13.710938 -27.734375 13.953125 -27.515625 C 14.191406 -27.304688 14.394531 -26.988281 14.5625 -26.5625 L 14.875 -25.4375 C 15.0625 -24.9375 15.15625 -24.269531 15.15625 -23.4375 L 15.15625 -21.125 C 15.15625 -17.28125 14.609375 -14.878906 13.515625 -13.921875 C 13.035156 -13.492188 12.410156 -13.238281 11.640625 -13.15625 L 18 0 L 16.6875 0 C 15.351562 0 14.441406 -0.125 13.953125 -0.375 C 13.472656 -0.632812 13.035156 -1.21875 12.640625 -2.125 L 7.71875 -13.046875 L 5.84375 -13.046875 L 6.203125 -12.046875 L 6.234375 -2.4375 C 6.234375 -1.207031 6.113281 -0.492188 5.875 -0.296875 C 5.632812 -0.0976562 4.796875 0 3.359375 0 Z M 8.203125 -16.59375 C 9.640625 -16.59375 10.507812 -16.882812 10.8125 -17.46875 C 11.125 -18.0625 11.28125 -19.023438 11.28125 -20.359375 C 11.28125 -21.691406 11.269531 -22.535156 11.25 -22.890625 C 11.238281 -23.253906 11.179688 -23.671875 11.078125 -24.140625 C 10.972656 -24.609375 10.8125 -24.921875 10.59375 -25.078125 C 10.039062 -25.503906 9.242188 -25.71875 8.203125 -25.71875 L 5.84375 -25.71875 L 6.203125 -24.71875 L 6.203125 -17.515625 L 5.875 -16.59375 Z M 8.203125 -16.59375 "/></g></g></g><g fill="#4d4d4d" fill-opacity="1"><g transform="translate(909.019975, 450.753285)"><g><path d="M 15.953125 0 C 14.597656 0 13.78125 -0.101562 13.5 -0.3125 C 13.21875 -0.53125 12.957031 -1.238281 12.71875 -2.4375 L 11.359375 -9.203125 L 6.3125 -9.203125 L 4.6875 0 L 3.765625 0 C 2.484375 0 1.664062 -0.0703125 1.3125 -0.21875 C 0.96875 -0.363281 0.796875 -0.707031 0.796875 -1.25 C 0.796875 -1.800781 2.820312 -10.984375 6.875 -28.796875 L 10.71875 -28.796875 L 17.28125 0 Z M 8.59375 -21.515625 L 7.125 -13.71875 L 6.796875 -13.046875 L 10.921875 -13.046875 C 10.890625 -13.066406 10.820312 -13.191406 10.71875 -13.421875 C 10.613281 -13.648438 10.5625 -13.773438 10.5625 -13.796875 L 9 -21.515625 Z M 13.84375 -35.953125 L 14.59375 -35.234375 L 9.3125 -29.953125 L 7.078125 -32.28125 L 10 -35.59375 C 10.695312 -36.289062 11.171875 -36.710938 11.421875 -36.859375 C 11.671875 -37.003906 11.945312 -37.078125 12.25 -37.078125 C 12.5625 -37.078125 13.09375 -36.703125 13.84375 -35.953125 Z M 13.84375 -35.953125 "/></g></g></g><g fill="#4d4d4d" fill-opacity="1"><g transform="translate(927.098184, 450.753285)"><g/></g></g><g fill="#4d4d4d" fill-opacity="1"><g transform="translate(934.697427, 450.753285)"><g><path d="M 16.71875 -23.25 C 16.957031 -21.71875 17.097656 -20.4375 17.140625 -19.40625 C 17.179688 -18.382812 17.203125 -17.035156 17.203125 -15.359375 L 17.203125 -11.921875 C 17.203125 -9.941406 17.132812 -8.503906 17 -7.609375 C 16.863281 -6.722656 16.710938 -5.875 16.546875 -5.0625 C 16.390625 -4.25 16.191406 -3.628906 15.953125 -3.203125 C 15.710938 -2.773438 15.410156 -2.300781 15.046875 -1.78125 C 14.691406 -1.257812 14.289062 -0.878906 13.84375 -0.640625 C 12.71875 -0.0234375 11.4375 0.28125 10 0.28125 L 2.40625 0 L 2.40625 -28.875 L 10 -29.28125 C 11.382812 -29.28125 12.550781 -29.003906 13.5 -28.453125 C 14.445312 -27.910156 15.160156 -27.289062 15.640625 -26.59375 C 16.117188 -25.90625 16.476562 -24.789062 16.71875 -23.25 Z M 10 -3.28125 C 10.875 -3.28125 11.523438 -3.585938 11.953125 -4.203125 C 12.191406 -4.546875 12.398438 -4.878906 12.578125 -5.203125 C 12.753906 -5.523438 12.890625 -6.003906 12.984375 -6.640625 C 13.078125 -7.273438 13.15625 -7.816406 13.21875 -8.265625 C 13.28125 -8.722656 13.328125 -9.382812 13.359375 -10.25 C 13.390625 -11.125 13.40625 -11.8125 13.40625 -12.3125 L 13.40625 -16.921875 C 13.40625 -18.785156 13.359375 -20.015625 13.265625 -20.609375 C 13.171875 -21.210938 13.078125 -21.828125 12.984375 -22.453125 C 12.890625 -23.085938 12.753906 -23.554688 12.578125 -23.859375 C 12.398438 -24.160156 12.191406 -24.472656 11.953125 -24.796875 C 11.523438 -25.410156 10.875 -25.71875 10 -25.71875 L 5.875 -25.71875 L 6.203125 -24.71875 L 6.203125 -4.28125 L 5.84375 -3.28125 Z M 10 -3.28125 "/></g></g></g><g fill="#4d4d4d" fill-opacity="1"><g transform="translate(953.895519, 450.753285)"><g><path d="M 2.40625 -2.4375 L 2.40625 -28.796875 L 3.234375 -28.796875 C 4.703125 -28.796875 5.5625 -28.695312 5.8125 -28.5 C 6.070312 -28.300781 6.203125 -27.585938 6.203125 -26.359375 L 6.203125 0 L 5.28125 0 C 3.84375 0 3.003906 -0.0976562 2.765625 -0.296875 C 2.523438 -0.492188 2.40625 -1.207031 2.40625 -2.4375 Z M 2.40625 -2.4375 "/></g></g></g><g fill="#4d4d4d" fill-opacity="1"><g transform="translate(962.494678, 450.753285)"><g><path d="M 1.59375 -3.953125 C 4.257812 -3.691406 6.207031 -3.5625 7.4375 -3.5625 C 8.664062 -3.5625 9.515625 -3.65625 9.984375 -3.84375 C 10.453125 -4.03125 10.804688 -4.25 11.046875 -4.5 C 11.285156 -4.75 11.457031 -5.128906 11.5625 -5.640625 C 11.695312 -6.273438 11.765625 -7.0625 11.765625 -8 C 11.765625 -8.9375 11.535156 -9.75 11.078125 -10.4375 C 10.628906 -11.132812 10.207031 -11.65625 9.8125 -12 C 9.425781 -12.34375 8.726562 -12.953125 7.71875 -13.828125 C 6.707031 -14.710938 5.992188 -15.347656 5.578125 -15.734375 C 5.160156 -16.117188 4.582031 -16.726562 3.84375 -17.5625 C 2.476562 -19.050781 1.796875 -20.609375 1.796875 -22.234375 C 1.796875 -25.066406 2.09375 -26.800781 2.6875 -27.4375 C 3.59375 -28.375 4.5625 -28.914062 5.59375 -29.0625 C 6.632812 -29.207031 7.742188 -29.28125 8.921875 -29.28125 L 14.359375 -28.125 C 14.148438 -26.601562 13.84375 -25.707031 13.4375 -25.4375 C 13.25 -25.28125 12.921875 -25.203125 12.453125 -25.203125 C 11.992188 -25.203125 11.390625 -25.28125 10.640625 -25.4375 L 9.125 -25.71875 C 7.550781 -25.71875 6.585938 -25.398438 6.234375 -24.765625 C 6.023438 -24.410156 5.898438 -24.085938 5.859375 -23.796875 C 5.816406 -23.503906 5.796875 -23.066406 5.796875 -22.484375 C 5.796875 -21.390625 7.144531 -19.707031 9.84375 -17.4375 C 11.125 -16.425781 12.125 -15.570312 12.84375 -14.875 C 13.5625 -14.1875 14.238281 -13.347656 14.875 -12.359375 C 15.519531 -11.367188 15.84375 -10.429688 15.84375 -9.546875 C 15.84375 -8.671875 15.832031 -8 15.8125 -7.53125 C 15.800781 -7.070312 15.75 -6.4375 15.65625 -5.625 C 15.5625 -4.8125 15.421875 -4.175781 15.234375 -3.71875 C 15.046875 -3.269531 14.765625 -2.75 14.390625 -2.15625 C 14.023438 -1.570312 13.578125 -1.132812 13.046875 -0.84375 C 11.679688 -0.09375 10.050781 0.28125 8.15625 0.28125 C 7.09375 0.28125 5.851562 0.15625 4.4375 -0.09375 C 3.019531 -0.351562 2.070312 -0.507812 1.59375 -0.5625 Z M 1.59375 -3.953125 "/></g></g></g><g fill="#4d4d4d" fill-opacity="1"><g transform="translate(979.932956, 450.753285)"><g><path d="M 6.15625 -2.4375 C 6.15625 -1.207031 6.035156 -0.492188 5.796875 -0.296875 C 5.554688 -0.0976562 4.71875 0 3.28125 0 L 2.40625 0 L 2.40625 -28.84375 L 8.875 -29.28125 C 11.539062 -29.28125 13.382812 -28.929688 14.40625 -28.234375 C 14.769531 -27.972656 15.078125 -27.734375 15.328125 -27.515625 C 15.585938 -27.304688 15.800781 -26.976562 15.96875 -26.53125 C 16.144531 -26.09375 16.28125 -25.734375 16.375 -25.453125 C 16.46875 -25.179688 16.53125 -24.75 16.5625 -24.15625 C 16.644531 -23.144531 16.6875 -22.125 16.6875 -21.09375 C 16.6875 -20.070312 16.671875 -19.300781 16.640625 -18.78125 C 16.609375 -18.257812 16.519531 -17.625 16.375 -16.875 C 16.226562 -16.132812 15.992188 -15.578125 15.671875 -15.203125 C 15.359375 -14.828125 14.921875 -14.453125 14.359375 -14.078125 C 13.367188 -13.390625 11.554688 -13.046875 8.921875 -13.046875 L 6.15625 -13.046875 Z M 8.921875 -16.59375 C 10.222656 -16.59375 11.234375 -16.804688 11.953125 -17.234375 C 12.410156 -17.503906 12.679688 -18.210938 12.765625 -19.359375 C 12.785156 -19.734375 12.796875 -20.328125 12.796875 -21.140625 C 12.796875 -21.953125 12.78125 -22.535156 12.75 -22.890625 C 12.726562 -23.253906 12.65625 -23.671875 12.53125 -24.140625 C 12.414062 -24.609375 12.222656 -24.921875 11.953125 -25.078125 C 11.234375 -25.503906 10.222656 -25.71875 8.921875 -25.71875 L 5.84375 -25.71875 L 6.15625 -24.71875 L 6.15625 -17.515625 L 5.84375 -16.59375 Z M 8.921875 -16.59375 "/></g></g></g><g fill="#4d4d4d" fill-opacity="1"><g transform="translate(998.611086, 450.753285)"><g><path d="M 9.765625 0.28125 C 6.742188 0.28125 4.691406 -0.863281 3.609375 -3.15625 C 2.535156 -5.445312 2 -9.234375 2 -14.515625 C 2 -19.796875 2.570312 -23.578125 3.71875 -25.859375 C 4.863281 -28.140625 6.882812 -29.28125 9.78125 -29.28125 C 12.675781 -29.28125 14.679688 -28.144531 15.796875 -25.875 C 16.921875 -23.613281 17.484375 -19.828125 17.484375 -14.515625 C 17.484375 -9.210938 16.953125 -5.421875 15.890625 -3.140625 C 14.835938 -0.859375 12.796875 0.28125 9.765625 0.28125 Z M 5.796875 -14.640625 C 5.796875 -10.828125 6.085938 -7.976562 6.671875 -6.09375 C 7.265625 -4.21875 8.300781 -3.28125 9.78125 -3.28125 C 11.257812 -3.28125 12.289062 -4.21875 12.875 -6.09375 C 13.46875 -7.976562 13.765625 -10.8125 13.765625 -14.59375 C 13.765625 -22.007812 12.4375 -25.71875 9.78125 -25.71875 C 7.125 -25.71875 5.796875 -22.023438 5.796875 -14.640625 Z M 5.796875 -14.640625 "/></g></g></g><g fill="#4d4d4d" fill-opacity="1"><g transform="translate(1018.089158, 450.753285)"><g><path d="M 11.84375 -8.796875 L 11.84375 -28.796875 L 12.71875 -28.796875 C 14.15625 -28.796875 14.992188 -28.695312 15.234375 -28.5 C 15.472656 -28.300781 15.59375 -27.585938 15.59375 -26.359375 L 15.59375 0 L 14.40625 0 C 13.070312 0 12.242188 -0.0976562 11.921875 -0.296875 C 11.597656 -0.492188 11.25 -1.140625 10.875 -2.234375 L 5.71875 -19.515625 L 5.515625 -19.515625 L 5.515625 -2.4375 C 5.515625 -1.207031 5.394531 -0.492188 5.15625 -0.296875 C 4.914062 -0.0976562 4.078125 0 2.640625 0 L 1.796875 0 L 1.796875 -28.796875 L 2.6875 -28.796875 C 3.988281 -28.796875 4.785156 -28.703125 5.078125 -28.515625 C 5.367188 -28.328125 5.726562 -27.675781 6.15625 -26.5625 L 11.640625 -8.796875 Z M 11.84375 -8.796875 "/></g></g></g><g fill="#4d4d4d" fill-opacity="1"><g transform="translate(1035.527436, 450.753285)"><g><path d="M 2.40625 -2.4375 L 2.40625 -28.796875 L 3.234375 -28.796875 C 4.703125 -28.796875 5.5625 -28.695312 5.8125 -28.5 C 6.070312 -28.300781 6.203125 -27.585938 6.203125 -26.359375 L 6.203125 0 L 5.28125 0 C 3.84375 0 3.003906 -0.0976562 2.765625 -0.296875 C 2.523438 -0.492188 2.40625 -1.207031 2.40625 -2.4375 Z M 9.5625 -35.953125 L 10.3125 -35.234375 L 5.046875 -29.953125 L 2.796875 -32.28125 L 5.71875 -35.59375 C 6.414062 -36.289062 6.890625 -36.710938 7.140625 -36.859375 C 7.390625 -37.003906 7.664062 -37.078125 7.96875 -37.078125 C 8.28125 -37.078125 8.8125 -36.703125 9.5625 -35.953125 Z M 9.5625 -35.953125 "/></g></g></g><g fill="#4d4d4d" fill-opacity="1"><g transform="translate(1044.126571, 450.753285)"><g><path d="M 14.59375 -28.796875 C 15.632812 -28.796875 16.300781 -28.734375 16.59375 -28.609375 C 16.894531 -28.492188 17.046875 -28.195312 17.046875 -27.71875 C 17.046875 -27.238281 14.988281 -18 10.875 0 L 7.28125 0 L 0.796875 -28.796875 L 2.234375 -28.796875 C 3.460938 -28.796875 4.195312 -28.695312 4.4375 -28.5 C 4.675781 -28.300781 4.929688 -27.613281 5.203125 -26.4375 L 8.84375 -6.515625 L 9.28125 -6.515625 L 13.484375 -28.796875 Z M 14.59375 -28.796875 "/></g></g></g><g fill="#4d4d4d" fill-opacity="1"><g transform="translate(1061.964797, 450.753285)"><g><path d="M 14.953125 -3.5625 L 14.953125 0 L 2.40625 0 L 2.40625 -28.796875 L 14.5625 -28.796875 L 14.5625 -25.40625 L 5.953125 -25.40625 L 6.3125 -24.40625 L 6.3125 -18.28125 L 5.953125 -17.28125 L 14.078125 -17.28125 L 14.078125 -13.71875 L 6 -13.71875 L 6.3125 -12.796875 L 6.3125 -4.5625 L 5.953125 -3.5625 Z M 14.953125 -3.5625 "/></g></g></g><g fill="#4d4d4d" fill-opacity="1"><g transform="translate(1078.12319, 450.753285)"><g><path d="M 11.125 -3.5625 C 12.5625 -3.5625 13.40625 -3.453125 13.65625 -3.234375 C 13.914062 -3.023438 14.046875 -2.304688 14.046875 -1.078125 L 14.046875 0 L 2.40625 0 L 2.40625 -28.796875 L 3.40625 -28.796875 C 4.84375 -28.796875 5.6875 -28.695312 5.9375 -28.5 C 6.1875 -28.300781 6.3125 -27.585938 6.3125 -26.359375 L 6.3125 -4.5625 L 5.953125 -3.5625 Z M 11.125 -3.5625 "/></g></g></g><g fill="#4d4d4d" fill-opacity="1"><g transform="translate(1092.961713, 450.753285)"><g/></g></g><g fill="#4d4d4d" fill-opacity="1"><g transform="translate(1100.560955, 450.753285)"><g><path d="M 14.953125 -3.5625 L 14.953125 0 L 2.40625 0 L 2.40625 -28.796875 L 14.5625 -28.796875 L 14.5625 -25.40625 L 5.953125 -25.40625 L 6.3125 -24.40625 L 6.3125 -18.28125 L 5.953125 -17.28125 L 14.078125 -17.28125 L 14.078125 -13.71875 L 6 -13.71875 L 6.3125 -12.796875 L 6.3125 -4.5625 L 5.953125 -3.5625 Z M 14.953125 -3.5625 "/></g></g></g><g fill="#4d4d4d" fill-opacity="1"><g transform="translate(1116.719348, 450.753285)"><g><path d="M 5.5625 -20.6875 L 5.5625 -2.4375 C 5.5625 -1.207031 5.429688 -0.492188 5.171875 -0.296875 C 4.921875 -0.0976562 4.09375 0 2.6875 0 L 1.796875 0 L 1.796875 -28.796875 L 2.71875 -28.796875 C 4 -28.796875 4.796875 -28.703125 5.109375 -28.515625 C 5.429688 -28.328125 5.847656 -27.6875 6.359375 -26.59375 L 10.71875 -16.640625 L 11.515625 -16.640625 L 16.875 -28.796875 L 17.484375 -28.796875 C 18.921875 -28.796875 19.765625 -28.695312 20.015625 -28.5 C 20.273438 -28.300781 20.40625 -27.585938 20.40625 -26.359375 L 20.40625 0 L 19.515625 0 C 18.078125 0 17.238281 -0.0976562 17 -0.296875 C 16.757812 -0.492188 16.640625 -1.207031 16.640625 -2.4375 L 16.59375 -20.640625 L 16.484375 -20.640625 L 13.515625 -13.484375 L 12.4375 -11.484375 L 9.796875 -11.484375 L 8.71875 -13.484375 L 5.6875 -20.6875 Z M 5.5625 -20.6875 "/></g></g></g><g fill="#4d4d4d" fill-opacity="1"><g transform="translate(1138.957141, 450.753285)"><g/></g></g><g fill="#4d4d4d" fill-opacity="1"><g transform="translate(1146.556406, 450.753285)"><g><path d="M 15 -22.640625 L 15 -21.046875 C 15 -19.597656 14.929688 -18.535156 14.796875 -17.859375 C 14.660156 -17.179688 14.367188 -16.519531 13.921875 -15.875 C 14.878906 -15.050781 15.550781 -14.113281 15.9375 -13.0625 C 16.320312 -12.007812 16.515625 -10.375 16.515625 -8.15625 C 16.515625 -5.894531 16.441406 -4.507812 16.296875 -4 C 16.148438 -3.488281 15.984375 -3.015625 15.796875 -2.578125 C 15.609375 -2.140625 15.390625 -1.804688 15.140625 -1.578125 C 14.890625 -1.347656 14.5625 -1.09375 14.15625 -0.8125 C 13.757812 -0.539062 13.304688 -0.335938 12.796875 -0.203125 C 11.566406 0.117188 10.195312 0.28125 8.6875 0.28125 L 2.40625 -0.046875 L 2.40625 -28.84375 L 7.875 -29.28125 C 10.28125 -29.28125 11.945312 -28.929688 12.875 -28.234375 C 13.25 -27.972656 13.550781 -27.734375 13.78125 -27.515625 C 14.007812 -27.304688 14.203125 -26.976562 14.359375 -26.53125 C 14.515625 -26.09375 14.632812 -25.726562 14.71875 -25.4375 C 14.90625 -24.90625 15 -23.972656 15 -22.640625 Z M 7.84375 -17.125 C 9.4375 -17.125 10.429688 -17.347656 10.828125 -17.796875 C 11.234375 -18.253906 11.4375 -19.363281 11.4375 -21.125 C 11.4375 -22.882812 11.21875 -24.101562 10.78125 -24.78125 C 10.34375 -25.457031 9.363281 -25.796875 7.84375 -25.796875 L 6 -25.796875 L 6.28125 -24.953125 L 6.28125 -17.921875 L 5.921875 -17.125 Z M 8.640625 -2.921875 C 10.535156 -2.921875 11.742188 -3.273438 12.265625 -3.984375 C 12.785156 -4.691406 13.046875 -5.769531 13.046875 -7.21875 C 13.046875 -8.675781 13.003906 -9.726562 12.921875 -10.375 C 12.835938 -11.03125 12.664062 -11.675781 12.40625 -12.3125 C 11.84375 -13.625 10.585938 -14.28125 8.640625 -14.28125 L 5.875 -14.28125 L 6.234375 -13.4375 L 6.234375 -3.765625 L 5.875 -2.921875 Z M 8.640625 -2.921875 "/></g></g></g><g fill="#4d4d4d" fill-opacity="1"><g transform="translate(1164.274652, 450.753285)"><g><path d="M 3.359375 0 L 2.40625 0 L 2.40625 -28.84375 L 8.125 -29.28125 C 10.519531 -29.28125 12.171875 -28.929688 13.078125 -28.234375 C 13.421875 -27.972656 13.710938 -27.734375 13.953125 -27.515625 C 14.191406 -27.304688 14.394531 -26.988281 14.5625 -26.5625 L 14.875 -25.4375 C 15.0625 -24.9375 15.15625 -24.269531 15.15625 -23.4375 L 15.15625 -21.125 C 15.15625 -17.28125 14.609375 -14.878906 13.515625 -13.921875 C 13.035156 -13.492188 12.410156 -13.238281 11.640625 -13.15625 L 18 0 L 16.6875 0 C 15.351562 0 14.441406 -0.125 13.953125 -0.375 C 13.472656 -0.632812 13.035156 -1.21875 12.640625 -2.125 L 7.71875 -13.046875 L 5.84375 -13.046875 L 6.203125 -12.046875 L 6.234375 -2.4375 C 6.234375 -1.207031 6.113281 -0.492188 5.875 -0.296875 C 5.632812 -0.0976562 4.796875 0 3.359375 0 Z M 8.203125 -16.59375 C 9.640625 -16.59375 10.507812 -16.882812 10.8125 -17.46875 C 11.125 -18.0625 11.28125 -19.023438 11.28125 -20.359375 C 11.28125 -21.691406 11.269531 -22.535156 11.25 -22.890625 C 11.238281 -23.253906 11.179688 -23.671875 11.078125 -24.140625 C 10.972656 -24.609375 10.8125 -24.921875 10.59375 -25.078125 C 10.039062 -25.503906 9.242188 -25.71875 8.203125 -25.71875 L 5.84375 -25.71875 L 6.203125 -24.71875 L 6.203125 -17.515625 L 5.875 -16.59375 Z M 8.203125 -16.59375 "/></g></g></g><g fill="#4d4d4d" fill-opacity="1"><g transform="translate(1183.072762, 450.753285)"><g><path d="M 14.953125 -3.5625 L 14.953125 0 L 2.40625 0 L 2.40625 -28.796875 L 14.5625 -28.796875 L 14.5625 -25.40625 L 5.953125 -25.40625 L 6.3125 -24.40625 L 6.3125 -18.28125 L 5.953125 -17.28125 L 14.078125 -17.28125 L 14.078125 -13.71875 L 6 -13.71875 L 6.3125 -12.796875 L 6.3125 -4.5625 L 5.953125 -3.5625 Z M 14.953125 -3.5625 "/></g></g></g><g fill="#4d4d4d" fill-opacity="1"><g transform="translate(1199.231178, 450.753285)"><g><path d="M 14.59375 -28.796875 C 15.632812 -28.796875 16.300781 -28.734375 16.59375 -28.609375 C 16.894531 -28.492188 17.046875 -28.195312 17.046875 -27.71875 C 17.046875 -27.238281 14.988281 -18 10.875 0 L 7.28125 0 L 0.796875 -28.796875 L 2.234375 -28.796875 C 3.460938 -28.796875 4.195312 -28.695312 4.4375 -28.5 C 4.675781 -28.300781 4.929688 -27.613281 5.203125 -26.4375 L 8.84375 -6.515625 L 9.28125 -6.515625 L 13.484375 -28.796875 Z M 14.59375 -28.796875 "/></g></g></g><g fill="#4d4d4d" fill-opacity="1"><g transform="translate(1217.069404, 450.753285)"><g><path d="M 14.953125 -3.5625 L 14.953125 0 L 2.40625 0 L 2.40625 -28.796875 L 14.5625 -28.796875 L 14.5625 -25.40625 L 5.953125 -25.40625 L 6.3125 -24.40625 L 6.3125 -18.28125 L 5.953125 -17.28125 L 14.078125 -17.28125 L 14.078125 -13.71875 L 6 -13.71875 L 6.3125 -12.796875 L 6.3125 -4.5625 L 5.953125 -3.5625 Z M 14.953125 -3.5625 "/></g></g></g><g fill="#4d4d4d" fill-opacity="1"><g transform="translate(1233.22782, 450.753285)"><g><path d="M 3.640625 0 C 3.003906 0 2.441406 -0.238281 1.953125 -0.71875 C 1.472656 -1.195312 1.234375 -1.765625 1.234375 -2.421875 C 1.234375 -3.078125 1.472656 -3.628906 1.953125 -4.078125 C 2.441406 -4.535156 3.003906 -4.765625 3.640625 -4.765625 C 4.273438 -4.765625 4.832031 -4.535156 5.3125 -4.078125 C 5.800781 -3.628906 6.046875 -3.078125 6.046875 -2.421875 C 6.046875 -1.765625 5.800781 -1.195312 5.3125 -0.71875 C 4.832031 -0.238281 4.273438 0 3.640625 0 Z M 3.640625 0 "/></g></g></g><g fill="#4d4d4d" fill-opacity="1"><g transform="translate(1240.499944, 450.753285)"><g/></g></g></svg>